# xmcd CD database file
#
# Track frame offsets:
#	183
#	10995
#	24383
#	49768
#	66010
#	79443
#	102663
#	118775
#	137500
#	155743
#	171345
#	203448
#	223115
#	250823
#	286225
#	320838
#
# Disc length: 4558 seconds
#
# Revision: 0
# Processed by: cddbd v1.5.1PL0 Copyright (c) Steve Scherf et al.
# Submitted via: CDex 1.51
#
DISCID=ec11cc10
DTITLE=Kai Winding - J.J. Johnson - Frank Rosolino - Trombomania!
DYEAR=1900
DGENRE=Jazz
TTITLE0=Out Of This World
TTITLE1=Thou Swell
TTITLE2=Lover
TTITLE3=Lope City
TTITLE4=Stolen Base
TTITLE5=It's Alright With Me
TTITLE6=Mad About The Boy
TTITLE7=Yes Sir, That's My Baby
TTITLE8=That's How I Feel About You
TTITLE9=Gong Rock
TTITLE10=I May Be Wrong
TTITLE11=The Things We Did Last Summer
TTITLE12=Frieda
TTITLE13=Doxy
TTITLE14=My De Luxe
TTITLE15=Flamingo
EXTD=
EXTT0=
EXTT1=
EXTT2=
EXTT3=
EXTT4=
EXTT5=
EXTT6=
EXTT7=
EXTT8=
EXTT9=
EXTT10=
EXTT11=
EXTT12=
EXTT13=
EXTT14=
EXTT15=
PLAYORDER=
